<?xml version="1.0" standalone="no"?>
<!DOCTYPE svg PUBLIC "-//W3C//DTD SVG 20010904//EN"
 "http://www.w3.org/TR/2001/REC-SVG-20010904/DTD/svg10.dtd">
<svg version="1.0" xmlns="http://www.w3.org/2000/svg"
 width="225.000000pt" height="225.000000pt" viewBox="0 0 225.000000 225.000000"
 preserveAspectRatio="xMidYMid meet">

<g transform="translate(0.000000,225.000000) scale(0.100000,-0.100000)"
fill="#000000" stroke="none">
<path d="M998 2133 c-21 -2 -38 -9 -38 -14 0 -6 -8 -8 -18 -5 -43 14 -302 -77
-302 -105 0 -6 -4 -7 -10 -4 -5 3 -10 3 -10 -2 0 -4 -16 -19 -35 -32 -27 -18
-33 -27 -25 -37 9 -10 6 -11 -9 -7 -28 7 -58 -16 -39 -30 10 -7 9 -8 -3 -4
-16 5 -51 -28 -125 -118 -41 -50 -44 -53 -56 -80 -6 -14 -15 -25 -20 -25 -5 0
-6 -10 -3 -22 4 -17 4 -19 -3 -9 -8 11 -12 10 -21 -7 -6 -11 -11 -27 -11 -36
0 -8 -5 -16 -11 -18 -5 -2 -13 -24 -16 -48 -3 -25 -10 -48 -16 -51 -5 -4 -13
-24 -17 -45 -4 -22 -15 -75 -25 -119 -13 -60 -16 -106 -12 -186 6 -117 26
-187 103 -364 24 -55 44 -106 44 -115 0 -21 137 -190 155 -190 7 0 17 5 20 10
3 6 -2 10 -11 10 -10 0 -15 3 -11 6 3 4 14 4 23 0 13 -5 14 -9 4 -21 -7 -9
-10 -18 -6 -22 3 -4 13 3 22 15 8 12 20 22 26 22 6 0 4 -8 -5 -18 -19 -20 -13
-34 9 -25 8 3 14 -1 14 -11 0 -9 -5 -16 -11 -16 -5 0 -7 -5 -4 -11 4 -6 14 -8
22 -5 8 3 11 1 8 -4 -6 -10 44 -35 53 -26 3 3 -9 19 -26 35 -24 22 -29 31 -19
39 8 7 16 5 27 -6 13 -14 12 -15 -5 -9 -19 7 -19 6 -2 -7 10 -8 26 -13 35 -11
9 1 11 0 4 -2 -9 -3 -5 -14 13 -35 14 -16 25 -33 25 -38 0 -12 68 -50 89 -50
13 0 20 14 29 58 7 32 12 71 12 86 0 26 -2 27 -37 21 -28 -5 -34 -4 -23 4 13
9 13 11 -1 11 -9 0 -19 6 -22 14 -8 20 -58 29 -93 16 -25 -9 -27 -8 -11 4 9 7
17 19 17 25 0 19 -27 41 -43 35 -10 -3 -18 4 -25 23 -12 37 -41 66 -58 59 -7
-3 -18 2 -24 10 -10 11 -9 14 5 14 15 0 14 3 -4 28 -47 60 -96 140 -123 202
-16 36 -38 83 -49 105 -16 34 -18 61 -17 173 1 74 6 132 11 132 6 0 7 25 4 61
-5 39 -3 58 3 54 9 -5 14 22 13 63 -1 6 5 12 13 12 8 0 14 7 14 15 0 8 4 15
10 15 5 0 13 12 16 28 8 30 54 115 66 120 4 2 8 8 8 14 0 5 16 28 35 51 31 36
48 89 28 86 -21 -3 -33 2 -33 16 0 8 4 15 9 15 21 0 41 -13 41 -27 0 -8 6 -13
13 -10 6 2 11 16 10 31 -2 29 0 30 28 16 15 -9 21 -7 25 5 3 8 17 15 30 15 30
0 75 21 68 31 -3 5 6 9 20 9 16 0 26 6 26 15 0 9 9 15 23 15 36 0 67 12 61 22
-4 6 2 7 16 3 17 -5 20 -4 15 5 -6 9 -3 10 9 3 20 -11 76 -5 76 8 0 5 -5 9
-12 9 -6 0 -9 2 -6 5 3 3 18 0 32 -7 17 -7 30 -8 34 -2 11 14 189 17 262 4 36
-6 104 -24 152 -41 48 -16 99 -29 112 -29 14 0 28 -5 32 -12 5 -8 2 -9 -10 -5
-11 4 -15 3 -10 -4 3 -6 17 -9 29 -6 16 3 25 -1 28 -14 3 -9 22 -28 43 -42 22
-13 76 -63 122 -111 46 -48 79 -79 73 -69 -6 13 -5 24 6 38 13 19 14 18 7 -10
-7 -27 -6 -29 9 -16 10 7 17 19 17 27 0 7 4 15 9 18 5 3 8 -2 7 -11 0 -10 4
-18 9 -18 6 0 17 -4 25 -10 13 -8 13 -7 1 8 -7 9 -18 14 -24 10 -6 -4 -8 0 -5
8 8 21 -8 46 -75 120 -48 53 -59 61 -68 49 -9 -12 -10 -12 -5 4 4 12 0 24 -11
32 -55 44 -76 57 -69 43 4 -7 -1 -5 -11 7 -29 33 -92 67 -110 59 -10 -3 -14
-3 -10 1 9 9 -59 44 -85 44 -10 0 -18 4 -18 8 0 12 -135 43 -155 36 -12 -5
-16 -4 -12 3 12 19 -151 29 -275 16z m389 -129 c-3 -3 -12 -4 -19 -1 -8 3 -5
6 6 6 11 1 17 -2 13 -5z m43 2 c0 -3 -4 -8 -10 -11 -5 -3 -10 -1 -10 4 0 6 5
11 10 11 6 0 10 -2 10 -4z m-605 -24 c-3 -3 -11 0 -18 7 -9 10 -8 11 6 5 10
-3 15 -9 12 -12z m690 8 c8 -13 -5 -13 -25 0 -13 8 -13 10 2 10 9 0 20 -4 23
-10z m109 -11 c-3 -5 -1 -9 5 -9 11 0 9 -26 -4 -37 -4 -5 -5 -2 0 6 6 11 4 13
-11 7 -15 -6 -16 -5 -7 5 8 8 9 18 2 30 -7 15 -6 17 6 13 8 -3 12 -10 9 -15z
m-159 2 c-2 -5 -16 -8 -31 -8 -14 0 -21 2 -15 6 15 10 52 11 46 2z m-860 -31
c3 -5 1 -10 -4 -10 -6 0 -11 5 -11 10 0 6 2 10 4 10 3 0 8 -4 11 -10z m900 0
c13 -6 15 -9 5 -9 -8 0 -22 4 -30 9 -18 12 -2 12 25 0z m142 -37 c0 -16 -6
-16 -36 1 l-24 13 30 -1 c16 0 30 -7 30 -13z m-1032 -11 c-3 -3 -11 0 -18 7
-9 10 -8 11 6 5 10 -3 15 -9 12 -12z m1072 -24 c-3 -8 -6 -5 -6 6 -1 11 2 17
5 13 3 -3 4 -12 1 -19z m-31 -13 c37 -32 28 -32 -16 0 -19 14 -29 25 -23 25 5
0 23 -11 39 -25z m-1110 -1295 c16 0 16 -1 -1 -20 -15 -17 -19 -17 -32 -5 -8
8 -11 20 -8 25 4 6 3 17 -2 23 -4 7 -1 5 9 -5 9 -10 24 -18 34 -18z m149 -160
c-3 -5 -12 -10 -18 -10 -7 0 -6 4 3 10 19 12 23 12 15 0z"/>
<path d="M1036 1948 c3 -5 10 -6 15 -3 13 9 11 12 -6 12 -8 0 -12 -4 -9 -9z"/>
<path d="M1004 1929 c-5 -9 -2 -10 9 -6 9 3 18 0 20 -9 4 -10 5 -9 3 2 -1 21
-22 29 -32 13z"/>
<path d="M845 1880 c-3 -6 1 -7 9 -4 18 7 21 14 7 14 -6 0 -13 -4 -16 -10z"/>
<path d="M1084 1814 c5 -20 3 -24 -10 -22 -9 2 -19 -3 -22 -11 -4 -11 3 -13
31 -8 21 3 39 1 43 -4 4 -7 -12 -10 -43 -8 -27 1 -54 0 -60 -4 -13 -8 -15 -75
-2 -83 5 -3 3 -11 -4 -18 -6 -8 -15 -12 -18 -10 -3 2 -6 -11 -7 -27 l-1 -31
26 33 25 34 -4 -27 c-4 -22 -1 -28 13 -28 27 0 32 -18 9 -30 -23 -12 -27 -32
-5 -24 8 4 15 1 15 -5 0 -6 -4 -11 -10 -11 -5 0 -10 -5 -10 -11 0 -5 4 -8 9
-5 5 3 14 -1 20 -8 10 -11 8 -15 -6 -19 -17 -4 -17 -5 0 -6 17 -1 26 -41 9
-41 -18 0 -62 58 -68 88 -8 41 -16 33 -44 -45 -13 -35 -26 -63 -31 -63 -4 0
-3 -16 2 -36 6 -19 8 -41 6 -47 -2 -7 -8 5 -12 26 -4 20 -11 37 -15 37 -5 0
-4 -15 1 -32 5 -18 9 -50 9 -71 0 -31 -3 -38 -17 -35 -10 2 -24 17 -33 33 -8
17 -16 32 -17 34 -1 2 -14 5 -28 6 -17 2 -23 0 -18 -8 16 -26 12 -37 -9 -23
-16 11 -23 12 -33 3 -11 -10 -9 -16 8 -34 11 -13 26 -23 32 -23 6 0 20 -7 31
-16 18 -14 18 -15 -4 -4 -13 7 -26 9 -29 7 -2 -3 -13 3 -24 14 -23 23 -39 17
-34 -12 3 -14 -3 -23 -20 -29 -34 -13 -41 -30 -11 -28 13 1 23 5 20 9 -7 12
29 16 66 6 52 -14 80 -39 68 -61 -14 -25 -2 -46 27 -46 23 0 25 4 25 45 0 38
3 45 20 45 17 0 20 -7 20 -50 0 -40 3 -48 15 -44 8 4 15 1 15 -5 0 -6 -7 -11
-15 -11 -8 0 -15 -7 -15 -16 0 -13 7 -15 30 -11 23 5 28 3 23 -8 -3 -10 -20
-15 -49 -15 -37 0 -44 3 -44 19 0 14 -6 19 -20 18 -14 -1 -18 -6 -14 -19 4
-13 0 -18 -15 -18 -15 0 -21 7 -22 23 -1 20 -2 19 -14 -8 -8 -16 -14 -24 -15
-17 0 10 -5 10 -22 1 -17 -9 -23 -9 -26 0 -2 7 -16 9 -38 5 -29 -5 -34 -3 -34
12 -1 18 -1 18 -11 2 -17 -30 -52 -22 -77 20 l-23 37 4 -37 c2 -31 0 -38 -15
-38 -13 0 -18 -8 -18 -27 0 -20 13 -39 51 -73 166 -146 180 -171 140 -263
l-21 -51 30 29 c23 22 33 26 42 17 21 -21 34 -13 49 31 l14 43 35 -18 c32 -16
33 -17 10 -18 -20 0 -27 -8 -38 -40 -6 -22 -12 -49 -12 -60 0 -10 -8 -34 -18
-52 -11 -20 -19 -56 -20 -91 -1 -31 -6 -66 -12 -78 -10 -18 -21 -83 -23 -141
-1 -10 -7 -18 -14 -18 -20 0 -15 -28 8 -40 11 -6 19 -19 18 -28 -1 -9 1 -25 6
-35 4 -10 3 -36 -4 -56 -6 -21 -11 -41 -11 -45 0 -3 36 -6 80 -6 l80 0 0 31
c0 33 12 60 38 88 9 10 22 25 27 34 14 24 145 30 145 7 0 -9 20 -36 46 -59 25
-24 48 -57 51 -72 5 -29 6 -29 84 -29 l78 0 -9 31 c-5 18 -12 34 -14 36 -3 3
6 30 20 60 13 31 24 58 24 60 0 3 -11 2 -25 -1 -22 -6 -24 -4 -16 15 5 15 18
23 39 25 36 4 105 38 95 48 -3 3 8 9 25 12 18 4 29 10 27 15 -3 4 -13 6 -23 3
-15 -5 -15 -4 1 9 11 9 25 13 32 11 7 -3 15 2 18 10 4 9 16 16 27 16 12 0 19
4 16 9 -7 10 28 43 37 36 4 -3 3 0 -2 6 -6 7 3 24 25 47 32 34 60 113 43 120
-4 2 -25 -5 -47 -16 -44 -21 -68 -17 -49 8 7 8 17 15 22 16 6 0 27 4 47 8 34
7 38 11 44 52 7 48 -1 94 -16 94 -6 0 -10 -5 -10 -11 0 -8 -5 -8 -15 1 -8 7
-15 19 -15 26 0 8 -7 14 -15 14 -8 0 -15 5 -15 10 0 6 10 10 23 10 16 0 18 3
8 9 -9 6 -10 10 -2 12 30 10 -81 145 -139 169 -25 11 -33 9 -56 -9 -23 -18
-40 -21 -115 -21 -53 0 -89 -4 -89 -10 0 -5 -7 -10 -15 -10 -8 0 -15 5 -15 10
0 6 -5 10 -11 10 -5 0 -7 -5 -3 -11 5 -8 -3 -10 -27 -6 -50 8 -106 -12 -139
-50 -16 -18 -33 -33 -37 -33 -4 0 -2 5 4 11 15 15 5 39 -13 32 -8 -3 -14 1
-14 11 0 9 -6 16 -12 16 -10 0 -10 2 0 9 10 6 4 14 -22 29 -38 23 -45 39 -21
48 24 10 67 108 63 146 -2 22 -8 32 -17 30 -18 -4 -32 18 -25 40 4 12 -2 21
-18 29 -19 8 -25 19 -26 49 -2 33 0 38 16 33 15 -3 23 4 35 34 9 21 16 31 16
22 1 -9 8 -22 16 -29 17 -14 21 -35 5 -25 -5 3 -10 1 -10 -5 0 -7 6 -10 13 -7
6 2 11 12 11 21 -1 10 6 16 18 16 11 0 27 4 37 10 15 7 21 4 30 -17 l12 -26
22 21 c12 12 27 18 33 14 16 -10 38 -117 29 -139 -5 -10 -10 -36 -12 -57 -3
-37 -2 -38 12 -20 8 10 15 25 15 32 0 6 11 12 26 12 l25 0 -26 -35 -27 -34 22
-36 c21 -34 45 -49 34 -21 -3 8 -1 17 5 21 15 9 14 42 -1 48 -10 4 -10 6 0 6
7 1 12 15 12 36 0 33 6 39 35 36 10 -1 55 59 55 74 0 5 -15 -4 -32 -21 -27
-23 -29 -24 -10 -3 26 30 29 47 5 28 -14 -10 -13 -8 2 10 17 21 18 24 3 18
-12 -4 -18 -1 -18 8 0 18 -27 20 -32 3 -3 -8 -12 -9 -36 0 -21 7 -32 7 -32 1
0 -6 -5 -7 -10 -4 -6 4 -4 12 5 21 21 22 19 30 -15 54 -21 15 -30 30 -30 50 0
15 -8 46 -18 68 l-18 41 -12 -32 c-13 -35 -56 -72 -72 -62 -15 9 -1 27 16 21
8 -3 14 -1 14 4 0 5 -8 10 -17 13 -15 3 -13 6 8 15 15 6 29 18 32 26 9 23 -2
46 -19 39 -8 -3 -14 1 -14 11 0 9 8 16 19 16 14 0 18 5 14 20 -3 11 0 20 6 20
6 0 11 -4 11 -8 0 -5 7 -17 15 -28 15 -19 15 -19 8 1 -3 11 -10 25 -14 31 -5
6 -6 14 -2 17 3 4 0 7 -7 7 -11 0 -11 3 -2 12 7 7 12 27 12 44 0 33 -16 56
-51 74 -10 6 -19 20 -19 30 0 15 -7 20 -26 20 -23 0 -25 -3 -20 -26z m86 -54
c0 -5 -4 -10 -9 -10 -6 0 -13 5 -16 10 -3 6 1 10 9 10 9 0 16 -4 16 -10z m-35
-30 c16 -7 13 -9 -15 -8 -19 0 -47 -4 -62 -10 -33 -14 -38 0 -5 16 27 13 55
14 82 2z m55 -16 c0 -2 -7 -4 -15 -4 -8 0 -15 4 -15 10 0 5 7 7 15 4 8 -4 15
-8 15 -10z m-60 -108 c0 -3 -4 -8 -10 -11 -5 -3 -10 -1 -10 4 0 6 5 11 10 11
6 0 10 -2 10 -4z m0 -63 c0 -8 5 -11 13 -8 6 4 4 0 -6 -8 -10 -8 -26 -14 -35
-12 -9 2 -20 4 -24 4 -8 1 1 30 15 49 12 15 37 -2 37 -25z m137 -195 c-3 -8
-6 -5 -6 6 -1 11 2 17 5 13 3 -3 4 -12 1 -19z m-303 -103 c-4 -8 -8 -15 -10
-15 -2 0 -4 7 -4 15 0 8 4 15 10 15 5 0 7 -7 4 -15z m-256 -234 c-2 -5 6 -17
17 -25 19 -15 19 -15 -12 -16 -33 0 -38 6 -27 34 6 17 26 23 22 7z m87 -41 c8
-13 -5 -13 -25 0 -13 8 -13 10 2 10 9 0 20 -4 23 -10z m105 -17 c0 -5 -5 -15
-10 -23 -8 -12 -10 -11 -10 8 0 12 5 22 10 22 6 0 10 -3 10 -7z m1 -89 c-9
-28 -9 -29 -10 -3 -1 14 2 29 6 32 11 12 13 2 4 -29z m-1 -38 c0 -3 -4 -8 -10
-11 -5 -3 -10 -1 -10 4 0 6 5 11 10 11 6 0 10 -2 10 -4z m707 -19 c0 -8 -5
-14 -11 -14 -6 0 -20 -4 -30 -9 -14 -5 -17 -4 -12 5 5 7 18 16 30 21 11 5 21
9 22 9 0 1 1 -5 1 -12z m43 -15 c0 -5 -7 -9 -15 -9 -8 0 -12 4 -9 9 3 4 9 8
15 8 5 0 9 -4 9 -8z m-114 -34 c4 -7 3 -8 -4 -4 -7 4 -12 2 -12 -4 0 -6 -4 -8
-10 -5 -5 3 -10 10 -10 16 0 13 27 11 36 -3z m234 -69 c0 -11 -3 -11 -24 -3
-23 9 -20 23 4 17 11 -3 20 -9 20 -14z m-404 -61 c9 -29 19 -59 22 -66 3 -8
-7 -2 -21 12 -29 29 -43 67 -33 91 9 24 13 18 32 -37z m279 -28 c3 -5 1 -10
-4 -10 -6 0 -11 5 -11 10 0 6 2 10 4 10 3 0 8 -4 11 -10z m-253 -181 c25 -117
35 -205 12 -114 -8 32 -19 64 -24 70 -9 12 -25 153 -15 144 3 -4 15 -49 27
-100z m203 76 c-26 -22 -55 -33 -55 -21 0 7 64 46 75 45 6 0 -3 -11 -20 -24z
m12 -120 c0 -17 -13 -20 -21 -6 -4 5 0 12 6 14 7 3 13 6 14 6 0 1 1 -6 1 -14z
m-83 -83 c2 -4 -4 -8 -14 -8 -10 0 -16 4 -14 8 3 4 9 8 14 8 5 0 11 -4 14 -8z"/>
<path d="M1875 1680 c-3 -5 1 -10 10 -10 9 0 13 5 10 10 -3 6 -8 10 -10 10 -2
0 -7 -4 -10 -10z"/>
<path d="M1955 1593 c8 -7 17 -12 19 -11 3 2 12 -6 20 -17 15 -19 15 -18 5 11
-7 24 -16 32 -34 32 -21 0 -22 -2 -10 -15z"/>
<path d="M1894 1591 c4 -6 21 -18 37 -27 29 -14 29 -14 17 5 -7 11 -14 18 -16
16 -3 -2 -14 0 -25 6 -14 8 -18 8 -13 0z"/>
<path d="M1927 1535 c3 -8 9 -12 14 -9 12 7 11 11 -5 17 -10 4 -13 1 -9 -8z"/>
<path d="M1971 1534 c1 -5 -1 -25 -5 -44 -7 -34 1 -59 47 -147 20 -40 38 -28
31 19 -5 30 -4 39 4 34 7 -4 12 -14 12 -23 0 -9 2 -14 5 -11 5 5 -32 153 -42
172 -3 4 -9 2 -13 -5 -7 -10 -12 -10 -25 1 -9 7 -15 9 -14 4z"/>
<path d="M1440 1446 c0 -2 8 -10 18 -17 15 -13 16 -12 3 4 -13 16 -21 21 -21
13z"/>
<path d="M1487 1444 c-11 -11 4 -59 26 -84 64 -71 86 -108 80 -131 -6 -23 -6
-23 14 -6 14 12 29 15 51 11 40 -8 50 -32 17 -40 -44 -11 -113 6 -165 41 -54
36 -63 31 -28 -18 13 -17 23 -36 24 -42 0 -5 2 -16 2 -22 3 -20 30 -15 37 7
10 30 45 26 45 -5 0 -16 6 -25 16 -25 12 0 15 7 12 25 -5 24 -3 25 43 25 45 0
53 -5 51 -30 0 -3 10 -10 24 -17 20 -9 24 -8 26 5 0 10 2 24 3 32 1 8 -8 25
-19 38 l-19 22 25 0 c15 0 29 -7 32 -17 11 -27 24 -2 29 57 3 30 6 64 8 75 4
16 -10 23 -105 51 -59 17 -119 37 -132 43 -15 6 -24 7 -24 1 0 -6 5 -10 11
-10 8 0 8 -5 -1 -15 -14 -17 -35 -21 -25 -5 3 6 2 10 -4 10 -5 0 -13 -5 -16
-11 -5 -6 -12 -4 -20 8 -7 10 -11 21 -9 25 6 9 0 11 -9 2z m253 -116 c0 -11
-7 -10 -31 2 -28 16 -23 32 6 18 14 -6 25 -15 25 -20z"/>
<path d="M569 1377 c-25 -42 -33 -86 -25 -150 l7 -52 52 0 c49 0 52 -2 55 -27
2 -15 -1 -36 -7 -46 -7 -14 -7 -24 2 -37 12 -15 15 -12 26 25 7 23 15 49 18
58 5 11 2 14 -10 9 -17 -6 -26 17 -9 25 17 7 53 71 48 84 -3 9 -1 12 4 9 6 -3
10 -1 10 5 0 7 -9 14 -20 17 -11 3 -17 10 -13 16 12 19 10 47 -3 47 -6 0 -15
8 -20 18 -6 14 -8 12 -14 -13 l-8 -30 -1 27 c-1 30 -12 40 -48 44 -18 2 -29
-6 -44 -29z"/>
<path d="M783 1383 c4 -3 1 -13 -6 -22 -11 -14 -10 -14 5 -2 16 12 16 31 1 31
-4 0 -3 -3 0 -7z"/>
<path d="M816 1361 c-3 -4 6 -6 19 -3 14 2 25 6 25 8 0 8 -39 4 -44 -5z"/>
<path d="M1350 1356 c5 -5 19 -11 30 -13 17 -2 18 0 9 10 -7 7 -20 13 -30 13
-12 0 -15 -4 -9 -10z"/>
<path d="M1424 1223 c3 -4 1 -12 -6 -20 -6 -7 -9 -15 -7 -17 6 -6 40 -9 69 -6
l25 2 -28 12 c-15 7 -25 15 -22 18 3 3 -4 8 -16 11 -11 3 -18 3 -15 0z"/>
<path d="M2063 1185 c0 -22 2 -30 4 -17 2 12 2 30 0 40 -3 9 -5 -1 -4 -23z"/>
<path d="M1160 1165 c0 -3 11 -10 24 -15 19 -7 26 -18 29 -47 3 -29 4 -24 5
17 0 30 -2 50 -4 43 -4 -8 -13 -9 -30 -3 -13 5 -24 7 -24 5z"/>
<path d="M600 1135 c0 -14 5 -25 10 -25 6 0 10 11 10 25 0 14 -4 25 -10 25 -5
0 -10 -11 -10 -25z"/>
<path d="M750 1156 c0 -2 9 -6 20 -9 11 -3 18 -1 14 4 -5 9 -34 13 -34 5z"/>
<path d="M1650 1146 c0 -8 7 -16 15 -20 10 -4 15 1 15 14 0 11 -7 20 -15 20
-8 0 -15 -6 -15 -14z"/>
<path d="M1380 1080 c0 -34 2 -39 14 -28 8 8 10 15 4 19 -7 4 -6 9 1 13 16 10
13 36 -4 36 -11 0 -15 -11 -15 -40z"/>
<path d="M442 1090 c0 -14 2 -19 5 -12 2 6 2 18 0 25 -3 6 -5 1 -5 -13z"/>
<path d="M1780 1095 c0 -8 4 -15 10 -15 5 0 7 7 4 15 -4 8 -8 15 -10 15 -2 0
-4 -7 -4 -15z"/>
<path d="M547 1093 c-10 -9 -9 -61 1 -67 5 -3 9 13 10 35 3 39 1 45 -11 32z"/>
<path d="M786 1075 c-3 -9 -6 -22 -5 -28 0 -7 5 -1 10 12 5 13 8 26 5 28 -2 2
-6 -3 -10 -12z"/>
<path d="M1254 1067 c-9 -24 0 -40 23 -42 20 -1 20 0 5 24 -9 14 -17 28 -19
30 -1 2 -5 -3 -9 -12z"/>
<path d="M480 1055 c0 -8 7 -15 15 -15 8 0 15 7 15 15 0 8 -7 15 -15 15 -8 0
-15 -7 -15 -15z"/>
<path d="M1777 1036 c8 -42 68 -149 93 -167 14 -10 41 -20 60 -24 l35 -6 -30
14 c-33 16 -82 64 -73 72 3 3 17 1 32 -5 36 -13 85 7 111 46 l19 29 -34 -28
c-28 -24 -39 -28 -69 -22 -40 7 -67 28 -76 56 -4 11 -13 19 -21 19 -8 0 -14 9
-14 20 0 13 -7 20 -19 20 -14 0 -17 -6 -14 -24z"/>
<path d="M1190 1008 c-11 -18 -20 -44 -20 -57 0 -20 4 -22 23 -16 12 4 63 9
112 12 99 6 115 13 115 50 0 22 -3 24 -22 18 -58 -21 -186 -10 -180 14 4 21
-8 11 -28 -21z"/>
<path d="M1456 1015 c4 -8 1 -22 -6 -30 -11 -13 -10 -14 4 -9 12 5 15 2 10
-10 -4 -11 0 -16 13 -16 23 0 66 29 44 30 -12 0 -12 3 -3 12 7 7 12 18 12 26
0 9 -8 4 -21 -12 -24 -31 -39 -33 -39 -7 0 11 -4 23 -10 26 -6 3 -7 -1 -4 -10z"/>
<path d="M1038 993 c-24 -6 -23 -19 2 -26 15 -4 20 0 20 14 0 10 -1 18 -2 18
-2 -1 -11 -3 -20 -6z"/>
<path d="M1110 895 c-7 -9 -11 -18 -8 -20 3 -3 11 1 18 10 7 9 11 18 8 20 -3
3 -11 -1 -18 -10z"/>
</g>
</svg>
