<?xml version="1.0" standalone="no"?>
<!DOCTYPE svg PUBLIC "-//W3C//DTD SVG 20010904//EN"
 "http://www.w3.org/TR/2001/REC-SVG-20010904/DTD/svg10.dtd">
<svg version="1.0" xmlns="http://www.w3.org/2000/svg"
 width="212.000000pt" height="238.000000pt" viewBox="0 0 212.000000 238.000000"
 preserveAspectRatio="xMidYMid meet">

<g transform="translate(0.000000,238.000000) scale(0.100000,-0.100000)"
fill="#000000" stroke="none">
<path d="M711 2343 c-71 -37 -88 -49 -53 -39 17 6 22 3 22 -12 0 -11 9 -55 20
-99 12 -48 19 -106 17 -146 -1 -37 1 -68 5 -70 3 -1 8 -11 10 -22 2 -15 13
-21 42 -25 48 -6 58 -27 19 -36 -15 -4 -36 -13 -46 -20 -18 -12 -18 -12 2 -19
11 -3 26 -3 33 1 7 4 10 4 6 -1 -4 -4 2 -16 13 -26 22 -19 19 -23 -26 -33 -22
-5 -26 -4 -15 4 13 9 13 10 0 9 -8 -1 -26 -5 -40 -9 -23 -7 -23 -8 -4 -9 19
-1 34 -18 34 -38 0 -3 -16 -2 -36 2 -33 6 -36 4 -29 -12 20 -49 19 -49 -55
-63 -62 -12 -70 -15 -55 -26 16 -12 16 -15 0 -48 -10 -21 -22 -33 -29 -29 -29
16 -46 38 -41 53 3 11 -1 20 -10 23 -11 5 -14 21 -13 65 l2 60 27 -8 c28 -8
28 -8 13 15 -9 13 -24 27 -34 30 -19 6 -60 102 -53 123 7 17 24 15 39 -5 13
-17 13 -17 14 1 0 15 3 16 15 6 9 -7 18 -10 22 -6 3 3 1 6 -5 6 -16 0 -15 17
1 23 6 2 0 2 -15 0 -33 -5 -36 9 -9 36 12 12 15 21 9 23 -8 3 -7 11 1 28 11
22 9 21 -14 -5 l-27 -30 6 30 c6 28 5 27 -22 -13 -30 -44 -56 -43 -29 0 8 13
20 40 26 60 13 39 35 43 44 7 3 -10 12 -19 20 -19 22 0 31 32 12 42 -20 12
-19 31 3 51 24 22 66 23 58 2 -5 -14 -2 -14 23 -1 31 17 47 11 30 -11 -15 -17
1 -16 24 1 17 13 16 14 -3 19 -11 3 -20 10 -20 17 0 6 5 8 12 4 6 -4 8 -3 4 4
-3 6 -2 13 4 17 10 6 14 45 4 45 -3 0 -15 -5 -27 -12 -20 -10 -21 -10 -8 5 12
15 11 17 -5 17 -16 0 -17 2 -4 10 32 21 -2 8 -102 -39 -125 -59 -169 -94 -201
-164 -13 -29 -90 -157 -172 -286 -148 -234 -148 -235 -126 -250 67 -44 131
-96 226 -183 59 -54 110 -98 113 -98 4 0 20 20 35 45 32 50 35 52 51 30 6 -8
34 -20 62 -27 50 -12 51 -12 30 -29 -20 -17 -20 -18 -4 -47 16 -27 16 -31 2
-36 -9 -3 -33 -6 -54 -6 l-38 0 -4 -55 c-3 -51 -1 -56 20 -62 24 -6 26 -11 12
-33 -9 -13 -12 -12 -25 4 -13 18 -15 4 -15 -135 0 -135 2 -157 18 -170 9 -9
23 -25 30 -35 7 -10 10 -12 7 -4 -4 8 1 6 10 -5 9 -11 18 -19 20 -17 14 7 18
0 5 -9 -12 -9 -12 -10 3 -5 10 3 24 6 30 6 7 0 6 4 -3 10 -13 8 -12 13 8 32
18 19 22 20 22 6 0 -9 -4 -19 -9 -22 -15 -10 -5 -41 14 -44 12 -3 15 0 9 10
-4 7 3 4 15 -7 19 -17 22 -27 18 -63 -4 -34 -2 -39 7 -26 11 14 14 13 36 -9
28 -30 30 -39 7 -43 -9 -1 -15 1 -12 6 5 7 -18 21 -40 25 -20 3 -58 -41 -81
-93 -13 -30 -28 -51 -34 -47 -5 3 -15 -6 -20 -20 -5 -14 -15 -23 -20 -20 -6 4
-4 13 6 23 11 10 13 17 5 20 -6 2 -11 13 -11 24 0 12 -7 26 -16 33 -15 11 -15
14 0 43 17 32 56 62 56 42 0 -5 7 -10 15 -10 21 0 19 -16 -6 -39 -18 -17 -20
-25 -13 -56 l9 -36 11 36 c9 29 9 33 -2 24 -10 -9 -14 -9 -14 0 0 10 14 15 33
12 5 -1 6 9 2 21 -4 15 -3 18 3 10 6 -9 12 -6 22 12 7 14 17 23 21 20 5 -3 8
5 6 18 -1 14 3 22 11 20 23 -4 12 24 -17 41 -42 24 -48 21 -20 -10 l24 -27
-29 18 c-16 10 -25 13 -22 7 5 -7 -2 -11 -18 -12 -14 -1 -32 -2 -38 -3 -7 -1
-19 2 -25 7 -7 5 -13 6 -13 1 0 -5 -4 -2 -10 6 -14 23 -18 10 -21 -63 -2 -58
1 -70 20 -91 15 -16 22 -34 20 -54 -2 -16 3 -37 10 -46 8 -9 9 -16 3 -16 -6 0
-14 5 -17 10 -10 17 -23 11 -28 -12 -2 -13 -5 -3 -7 22 l-2 45 -10 -48 c-6
-26 -8 -50 -6 -52 9 -10 54 -12 64 -3 8 5 14 3 17 -7 4 -9 -6 -24 -27 -40 -39
-30 -43 -30 -49 -8 -2 10 -5 -32 -6 -94 l-1 -112 72 6 c40 3 91 9 113 13 l40
7 -44 13 c-41 13 -43 15 -20 21 l24 7 -25 2 c-19 1 -14 5 20 14 25 7 53 16 63
21 10 4 17 3 17 -3 0 -6 -8 -13 -17 -15 -10 -2 -6 -3 9 -1 44 5 60 -4 47 -28
-6 -11 -9 -22 -6 -24 6 -6 145 -23 190 -24 23 0 36 4 32 10 -3 6 0 10 7 10 9
0 9 3 -2 10 -11 7 -11 10 -2 10 7 0 10 5 6 11 -13 22 -5 71 13 85 37 28 62 12
69 -43 2 -16 -6 -25 -34 -37 -28 -11 -31 -15 -15 -15 12 -1 23 -4 26 -8 2 -5
2 -2 1 5 -5 20 14 13 21 -8 3 -11 10 -20 15 -20 5 0 7 6 4 14 -3 8 -1 17 5 21
6 3 11 1 11 -5 0 -7 13 -9 38 -5 29 5 34 4 22 -5 -12 -10 -11 -11 8 -7 12 3
22 0 22 -5 0 -7 5 -6 14 1 8 7 16 8 18 3 1 -5 47 -12 102 -16 93 -7 98 -6 91
11 -5 10 -10 59 -13 108 -3 83 -2 88 12 70 8 -11 16 -15 16 -10 0 26 44 11 85
-29 60 -57 59 -76 -11 -119 l-56 -34 73 -11 c41 -6 121 -12 179 -14 l105 -3 1
95 c0 120 -1 124 -34 100 -15 -10 -40 -22 -57 -25 -21 -5 -15 1 21 18 28 14
55 30 58 36 11 18 -39 13 -73 -7 -27 -15 -33 -15 -41 -2 -5 8 -7 17 -4 19 3 3
9 -1 13 -8 6 -10 14 -11 26 -3 16 8 12 12 -27 30 -25 11 -49 26 -54 33 -18 28
-41 136 -30 137 6 0 27 2 46 3 l35 3 -37 14 c-21 8 -38 19 -38 24 0 5 9 4 19
-2 28 -14 31 -13 32 13 0 20 1 20 8 3 5 -14 10 -16 15 -8 9 15 26 16 26 1 0
-5 -4 -7 -10 -4 -5 3 -10 1 -10 -4 0 -6 7 -11 15 -11 8 0 15 7 15 15 0 10 11
15 35 15 28 0 35 4 35 20 0 13 -9 22 -25 26 -17 4 -25 13 -25 27 0 20 1 20 25
-3 14 -13 25 -19 25 -13 0 5 -9 18 -20 28 -16 14 -18 21 -8 28 9 6 5 7 -12 3
-23 -5 -24 -4 -7 9 11 7 24 12 31 9 15 -6 16 47 1 59 -6 4 -5 10 4 16 18 12 6
62 -13 55 -8 -3 -17 -1 -21 5 -3 7 2 11 14 11 20 0 21 6 21 88 l0 88 -37 13
c-21 7 -51 29 -68 47 -29 32 -78 50 -80 29 -2 -19 -30 -70 -45 -82 -8 -7 -30
-19 -47 -28 -33 -16 -46 -29 -18 -19 29 12 61 -4 61 -30 0 -17 -4 -22 -15 -19
-13 4 -12 1 2 -10 19 -16 22 -33 7 -42 -6 -4 -7 1 -3 11 4 11 3 15 -5 10 -6
-3 -36 6 -68 21 -46 22 -53 28 -38 34 13 5 14 8 4 8 -13 1 -13 2 0 11 11 7 5
8 -20 4 -19 -3 -41 -7 -47 -10 -20 -6 -15 31 7 51 11 10 20 24 20 32 0 7 12
18 27 24 15 6 50 21 77 35 27 14 55 23 61 20 7 -2 12 3 11 12 0 9 7 18 17 20
10 2 17 -3 17 -11 0 -8 7 -17 15 -21 8 -3 14 -2 14 2 -5 31 3 62 16 62 19 0
19 9 -2 32 -12 14 -14 21 -5 30 15 15 62 -5 62 -26 0 -8 4 -18 10 -21 6 -4 7
11 3 42 l-6 48 28 -25 29 -25 -22 29 c-12 16 -22 35 -22 43 0 13 4 13 26 -2
15 -9 23 -12 20 -6 -5 7 7 9 37 5 39 -6 46 -4 51 14 8 23 85 92 181 163 33 24
79 59 102 77 l42 34 -48 71 c-26 40 -105 172 -175 295 -70 122 -130 222 -132
222 -3 0 3 -14 12 -31 11 -23 13 -34 5 -42 -8 -8 -24 2 -56 36 -31 31 -51 44
-63 41 -12 -4 -13 -3 -5 3 18 13 -119 148 -141 140 -9 -4 -16 -13 -16 -21 0
-16 35 -27 47 -15 6 6 22 -5 42 -26 l32 -35 -23 -9 c-36 -14 -77 -57 -83 -88
-12 -53 -28 -84 -37 -75 -6 6 -10 51 -11 100 -2 112 -10 111 -14 -2 -2 -46 -7
-95 -12 -107 -5 -13 -10 -18 -10 -11 -1 21 -31 13 -31 -9 0 -11 4 -18 9 -14 5
3 12 1 16 -5 3 -5 -1 -10 -9 -10 -17 0 -36 29 -36 55 0 9 4 13 10 10 6 -3 7 1
4 9 -3 9 -10 16 -15 16 -13 0 -11 47 2 55 5 4 8 12 6 18 -6 17 22 85 55 135
15 24 28 46 28 50 0 4 -24 20 -54 34 l-53 27 -37 -25 c-116 -79 -345 -85 -486
-11 l-65 34 -64 -34z m-93 -140 c-10 -2 -26 -2 -35 0 -10 3 -2 5 17 5 19 0 27
-2 18 -5z m456 -39 c3 -8 2 -12 -4 -9 -6 3 -10 10 -10 16 0 14 7 11 14 -7z
m560 4 c-3 -4 -9 -8 -15 -8 -5 0 -9 4 -9 8 0 5 7 9 15 9 8 0 12 -4 9 -9z
m-506 -23 c-3 -3 -9 2 -12 12 -6 14 -5 15 5 6 7 -7 10 -15 7 -18z m-710 -78
c-11 -37 -28 -41 -28 -7 0 17 28 55 36 47 2 -1 -2 -19 -8 -40z m1292 3 c-10
-19 -9 -20 14 -14 29 7 31 2 16 -27 -11 -19 -12 -19 -43 5 -22 17 -40 23 -55
19 -13 -3 -22 -1 -22 6 0 6 8 12 18 13 9 0 22 2 29 2 6 1 15 5 19 9 4 4 13 7
21 7 11 0 11 -4 3 -20z m-683 -24 c-2 -5 -9 -12 -17 -14 -8 -3 -10 0 -5 8 6 9
4 11 -4 6 -7 -5 -10 -14 -7 -22 3 -8 0 -11 -10 -7 -7 3 -14 -1 -14 -8 0 -7 -2
-10 -5 -7 -3 3 0 17 6 31 9 19 19 26 36 25 13 -2 22 -7 20 -12z m635 -11 c8 3
22 -3 31 -13 14 -15 15 -25 8 -45 -5 -14 -7 -28 -4 -31 3 -3 -6 -21 -21 -41
-15 -19 -24 -40 -21 -45 3 -6 1 -10 -5 -10 -6 0 -8 14 -6 35 3 20 0 35 -6 35
-6 0 -5 6 3 16 7 8 20 13 29 11 17 -4 26 28 9 38 -5 4 -6 -2 -2 -12 6 -16 4
-16 -18 2 -18 15 -20 16 -10 3 12 -16 11 -18 -7 -18 -11 0 -22 -6 -25 -12 -3
-9 -9 -7 -19 6 -10 13 -23 17 -41 14 -37 -7 -41 15 -9 43 26 23 26 23 8 2 -16
-19 -17 -23 -4 -23 16 0 54 48 50 63 -1 4 8 1 21 -8 14 -8 31 -13 39 -10z
m-572 7 c0 -4 14 -16 30 -26 17 -9 42 -40 57 -69 l27 -52 7 35 c7 33 7 32 6
-10 l-2 -45 -36 3 -37 3 8 -43 c5 -24 4 -45 -1 -48 -5 -3 -15 -24 -23 -45 -8
-23 -15 -32 -15 -21 -1 11 -4 17 -7 13 -8 -8 5 -47 16 -47 6 0 13 12 16 26 l7
27 13 -29 c11 -26 12 -27 13 -6 1 21 21 33 21 11 0 -5 5 -7 10 -4 14 9 12 -29
-2 -44 -11 -11 -9 -11 9 -2 31 16 33 14 29 -19 -7 -58 -63 -115 -108 -108 -13
2 -24 10 -24 18 -5 53 -6 55 -11 40 -9 -23 -26 -30 -43 -17 -10 8 -9 5 2 -9
20 -23 7 -47 -20 -36 -63 24 -104 107 -77 158 11 21 15 24 15 11 0 -16 2 -17
15 -3 8 8 14 25 13 38 -4 51 60 115 75 76 3 -8 6 -6 6 5 1 20 31 23 50 5 11
-11 13 -10 9 2 -2 8 -21 24 -41 35 l-36 20 -29 -28 -30 -29 6 47 c3 34 1 50
-9 56 -10 6 -10 9 -1 9 6 0 12 5 12 10 0 6 -4 10 -9 10 -14 0 -34 -67 -29 -94
3 -15 -2 -27 -14 -35 -25 -15 -24 -16 -42 29 -19 47 -19 50 -7 50 5 0 12 -16
15 -35 10 -52 23 -42 30 24 6 55 9 60 41 76 36 17 48 32 18 21 -10 -3 -2 8 17
24 33 29 60 39 60 22z m229 -57 c0 -5 -4 -3 -9 5 -5 8 -9 22 -9 30 0 16 17
-16 18 -35z m208 -46 c-5 -20 35 -33 52 -16 16 16 40 0 36 -23 -2 -11 0 -18 4
-15 12 7 21 -48 10 -59 -6 -6 -9 -6 -9 2 0 7 -7 12 -16 12 -19 0 -104 83 -104
103 0 7 7 14 16 14 10 0 14 -7 11 -18z m58 6 c0 -5 -10 -11 -22 -13 -16 -2
-23 2 -23 13 0 11 7 15 23 13 12 -2 22 -7 22 -13z m-194 -42 c13 -16 12 -17
-3 -4 -10 7 -18 15 -18 17 0 8 8 3 21 -13z m106 -45 c21 -12 40 -26 42 -31 2
-5 12 -18 22 -28 16 -16 16 -19 3 -19 -8 0 -12 -4 -9 -10 3 -5 1 -10 -4 -10
-6 0 -11 5 -11 10 0 6 -9 10 -20 10 -34 0 -79 28 -94 59 -25 47 8 56 71 19z
m-147 -10 c0 -7 4 -7 13 0 7 5 21 6 32 1 11 -4 14 -8 7 -8 -7 -1 -10 -5 -7
-11 3 -5 -3 -15 -14 -21 -10 -7 -17 -18 -14 -24 2 -7 -3 -15 -12 -19 -10 -4
-15 -12 -11 -22 3 -8 2 -12 -3 -9 -5 3 -13 0 -17 -6 -4 -8 -3 -9 4 -5 7 4 12
2 12 -5 0 -10 3 -10 12 -1 7 7 18 12 26 12 9 0 6 -7 -9 -21 l-24 -21 25 16
c31 20 94 21 110 1 10 -12 6 -13 -23 -8 -19 3 -44 0 -57 -7 l-23 -12 22 -12
c12 -7 18 -16 14 -21 -4 -4 -2 -5 6 0 12 7 11 10 -4 22 -11 7 -14 13 -8 13 6
0 22 -11 36 -25 l25 -26 18 25 c11 13 24 32 31 42 9 15 9 12 0 -13 -6 -18 -15
-33 -19 -33 -4 0 -8 -9 -8 -19 0 -11 -5 -23 -10 -26 -8 -5 -7 -11 1 -21 6 -8
8 -14 5 -14 -4 0 -1 -10 6 -22 7 -13 13 -30 14 -38 1 -8 5 -24 9 -35 7 -20 6
-20 -9 -1 -9 11 -16 26 -16 33 0 11 -5 11 -27 0 -16 -7 -35 -12 -44 -10 -9 2
-22 -3 -29 -12 -11 -13 -10 -14 6 -8 17 6 18 5 5 -11 -14 -17 -16 -16 -33 6
-14 18 -17 19 -11 4 4 -13 3 -17 -5 -12 -16 10 -15 -7 1 -23 9 -10 7 -10 -11
0 -12 8 -20 20 -17 27 3 7 1 10 -5 7 -12 -7 -36 40 -44 85 -4 19 0 61 7 92 8
31 11 56 8 56 -19 -5 -52 17 -57 38 -3 13 -10 21 -15 18 -5 -3 -9 2 -9 10 0 9
-5 16 -10 16 -7 0 -6 8 1 23 12 21 11 21 -6 7 -18 -14 -18 -13 0 11 16 21 27
26 52 24 18 -2 35 0 37 4 7 11 66 1 66 -11z m260 -28 c0 -5 -4 -10 -10 -10 -5
0 -10 5 -10 10 0 6 5 10 10 10 6 0 10 -4 10 -10z m-1105 -28 c-3 -3 -11 0 -18
7 -9 10 -8 11 6 5 10 -3 15 -9 12 -12z m1149 -13 c3 -3 -6 -6 -19 -7 -14 -1
-25 3 -25 8 0 10 35 9 44 -1z m-237 -35 c-3 -3 -12 -4 -19 -1 -8 3 -5 6 6 6
11 1 17 -2 13 -5z m264 -43 c-6 -4 -12 -17 -14 -29 -2 -12 -9 -28 -15 -34 -7
-7 -12 -18 -12 -26 0 -10 -7 -13 -21 -9 -12 3 -22 0 -26 -9 -3 -8 -9 -11 -14
-8 -5 3 -9 0 -9 -5 0 -6 5 -11 11 -11 6 0 8 -7 5 -16 -5 -12 -2 -15 10 -10 11
4 24 -1 36 -14 10 -11 16 -21 13 -21 -3 -1 -11 -2 -17 -3 -7 -1 -12 -8 -10
-17 1 -9 -7 -24 -18 -34 -17 -16 -20 -16 -20 -2 0 8 6 18 13 20 6 3 1 6 -13 6
-16 1 -21 4 -13 9 18 12 4 52 -18 52 -11 0 -19 3 -20 8 0 4 -3 20 -5 35 -3 16
-1 26 4 23 6 -3 12 3 15 13 3 14 11 18 25 15 12 -4 22 0 25 10 4 10 1 16 -8
16 -20 0 -19 19 1 27 8 3 25 -4 40 -17 l24 -23 0 22 c0 25 21 52 34 44 4 -3 3
-9 -3 -12z m-1046 -81 c3 -6 -1 -7 -9 -4 -18 7 -21 14 -7 14 6 0 13 -4 16 -10z
m-123 -39 c22 -11 29 -23 34 -59 5 -31 3 -47 -4 -50 -8 -2 -9 -9 -2 -22 8 -15
6 -21 -9 -30 -24 -12 -53 -14 -33 -2 16 11 5 42 -13 36 -11 -5 -14 10 -14 71
0 42 3 75 7 73 4 -2 19 -10 34 -17z m1178 -22 c0 -5 -7 -9 -15 -9 -9 0 -12 6
-9 15 6 15 24 11 24 -6z m-849 -22 c1 -7 2 -21 3 -31 2 -28 21 -30 33 -4 l10
22 5 -22 c4 -12 2 -20 -3 -16 -5 3 -9 -6 -9 -20 0 -13 3 -26 8 -29 4 -2 2 -2
-5 -1 -6 2 -17 -3 -23 -11 -10 -12 -8 -13 9 -10 12 2 19 0 16 -5 -10 -16 -40
-3 -43 19 -4 28 -26 22 -30 -8 -3 -16 0 -21 9 -16 8 5 10 4 5 -3 -9 -15 -38
-3 -32 13 2 7 -3 12 -12 11 -9 0 -16 5 -14 12 1 6 -3 12 -10 12 -6 0 -2 9 10
20 21 20 32 77 12 65 -5 -3 -10 -2 -10 2 0 14 70 13 71 0z m34 3 c3 -5 -1 -10
-9 -10 -9 0 -16 5 -16 10 0 6 4 10 9 10 6 0 13 -4 16 -10z m48 -60 c-3 -11
-10 -23 -16 -27 -5 -3 -8 -2 -5 3 3 5 8 17 11 27 9 24 16 22 10 -3z m512 -10
c3 -5 1 -10 -4 -10 -6 0 -11 5 -11 10 0 6 2 10 4 10 3 0 8 -4 11 -10z m-388
-42 c-3 -8 -6 -5 -6 6 -1 11 2 17 5 13 3 -3 4 -12 1 -19z m488 1 c-4 -6 0 -9
11 -7 12 2 19 -4 22 -17 2 -16 1 -17 -7 -5 -9 13 -15 8 -13 -12 1 -3 -6 -9
-16 -13 -9 -3 -13 -3 -9 1 4 4 2 13 -4 20 -13 16 -5 44 11 44 6 0 8 -5 5 -11z
m-186 -15 c17 -8 29 -20 26 -25 -4 -5 3 -9 15 -9 11 0 30 -9 42 -20 l22 -20
-32 0 c-23 0 -44 11 -72 36 -22 20 -40 40 -40 45 0 12 2 12 39 -7z m-615 -47
c-3 -8 9 -28 27 -45 l32 -31 -26 -31 c-23 -26 -27 -28 -35 -14 -6 11 -16 15
-26 11 -10 -4 -14 -11 -11 -17 3 -5 1 -10 -4 -10 -6 0 -11 -9 -11 -21 0 -11 5
-17 10 -14 6 3 10 1 10 -6 0 -10 3 -10 12 -1 16 16 28 15 28 -2 0 -16 -29 -15
-96 3 -38 10 -56 22 -74 48 -21 30 -22 36 -9 59 23 44 92 81 151 83 19 1 26
-3 22 -12z m66 -8 c0 -6 -4 -7 -10 -4 -5 3 -10 11 -10 16 0 6 5 7 10 4 6 -3
10 -11 10 -16z m513 -49 c-4 -15 -11 -19 -25 -15 -19 7 -57 -28 -58 -52 0 -7
-4 -13 -10 -13 -15 0 -12 22 8 47 13 17 62 46 89 53 0 0 -1 -9 -4 -20z m51 3
c4 -10 4 -14 0 -11 -4 4 -15 3 -25 -3 -25 -13 -26 6 -1 20 9 6 18 11 18 11 1
0 5 -8 8 -17z m243 -19 c-3 -3 -12 -4 -19 -1 -8 3 -5 6 6 6 11 1 17 -2 13 -5z
m-265 -31 c-7 -12 -5 -24 5 -39 8 -13 12 -28 8 -34 -3 -5 -2 -10 4 -10 5 0 12
14 16 30 4 17 11 30 15 30 5 0 7 7 4 15 -10 26 -24 16 -25 -17 0 -31 -1 -31
-11 -11 -6 12 -8 29 -4 39 5 13 14 15 53 9 59 -9 87 -27 108 -70 14 -31 14
-38 1 -63 -21 -41 -75 -64 -152 -65 -35 -1 -58 -5 -51 -9 6 -4 20 -8 30 -8 10
0 15 -5 12 -10 -4 -6 -9 -8 -13 -6 -4 2 -24 7 -45 10 -50 8 -74 24 -89 61 -15
36 -18 75 -6 75 5 0 4 9 -2 20 -9 16 -8 18 5 14 8 -4 15 -9 16 -13 0 -3 2 -14
4 -23 2 -10 -1 -18 -7 -18 -7 0 -7 -5 1 -13 6 -8 8 -17 4 -20 -3 -4 -1 -7 5
-7 7 0 12 -9 12 -21 0 -11 4 -18 10 -14 5 3 7 12 3 20 -3 8 0 15 6 15 8 0 9 6
2 18 -7 14 -9 74 -2 115 0 5 14 6 30 2 17 -3 32 -2 36 4 11 19 27 13 17 -6z
m296 -17 c2 -18 0 -26 -7 -21 -6 3 -8 11 -5 17 4 7 2 8 -5 4 -14 -9 -43 12
-35 26 3 5 16 8 27 6 16 -2 23 -11 25 -32z m-818 -2 c0 -8 -4 -12 -10 -9 -5 3
-10 13 -10 21 0 8 5 12 10 9 6 -3 10 -13 10 -21z m-90 -24 c0 -3 -6 -7 -13 -7
-7 0 -13 8 -13 18 0 13 3 15 13 7 7 -6 13 -14 13 -18z m840 4 c0 -2 -9 0 -20
6 -11 6 -20 13 -20 16 0 2 9 0 20 -6 11 -6 20 -13 20 -16z m-1025 -74 c4 -7
-3 -8 -22 -4 -38 9 -42 14 -10 14 14 0 29 -5 32 -10z m583 -22 c24 -15 32 -26
29 -39 -3 -11 -1 -19 4 -19 5 0 9 -4 9 -9 0 -6 -17 -3 -37 6 -53 21 -164 13
-221 -16 -52 -27 -51 -38 2 -16 96 40 227 17 308 -55 25 -22 48 -49 51 -60 3
-14 -13 -1 -47 34 -28 30 -65 60 -81 67 -35 14 -172 20 -195 9 -8 -5 -29 -13
-45 -19 -43 -16 -109 -77 -99 -92 4 -7 3 -10 -3 -6 -6 4 -15 -5 -21 -18 -7
-14 -8 -25 -3 -25 5 0 7 -23 5 -51 -3 -30 -1 -48 4 -45 6 3 9 -2 8 -11 -1 -22
98 -83 137 -83 24 0 27 -3 22 -20 -5 -16 -2 -20 14 -20 12 0 21 -5 21 -10 0
-6 9 -20 19 -31 14 -15 21 -17 26 -8 5 7 4 10 -2 6 -5 -3 -10 0 -10 7 0 8 6
12 14 9 7 -3 13 -10 12 -17 -4 -31 1 -37 17 -22 8 9 26 16 40 16 24 0 24 -1 9
-30 -8 -16 -15 -41 -15 -55 0 -30 -45 -74 -75 -75 -11 0 -34 13 -52 28 -24 22
-30 34 -26 55 3 16 -1 37 -11 52 -15 23 -15 25 1 26 13 0 12 3 -6 10 -23 9
-24 10 -5 24 26 20 14 19 -38 -3 -71 -31 -117 -36 -139 -16 -22 20 -25 44 -5
44 24 0 29 19 11 37 -13 12 -16 27 -12 56 4 25 0 48 -8 61 -10 15 -12 31 -5
59 8 35 6 40 -19 55 -23 14 -26 20 -17 34 8 13 7 21 -1 29 -9 9 -11 7 -7 -7 3
-12 -3 -27 -15 -38 -19 -17 -19 -17 -14 4 6 22 6 22 -23 5 l-29 -17 26 23 c23
20 25 28 16 47 -6 12 -22 25 -36 28 -44 10 -49 12 -60 32 -9 17 -6 19 26 20
20 1 61 9 90 17 30 9 64 13 76 9 33 -10 65 -43 78 -81 13 -40 21 -35 38 24 12
44 55 87 78 79 7 -3 12 0 10 7 -3 15 57 27 108 21 21 -3 54 -14 73 -26z m429
-20 c-3 -8 -6 -5 -6 6 -1 11 2 17 5 13 3 -3 4 -12 1 -19z m-1027 -108 c-13 -9
-7 -14 13 -11 17 3 5 -17 -13 -22 -13 -3 -18 -1 -13 6 3 7 2 8 -2 4 -14 -12
-14 -36 -1 -31 7 3 20 -13 30 -36 9 -22 33 -52 52 -66 32 -25 38 -51 8 -40 -7
3 -17 -2 -22 -10 -8 -15 -12 -15 -39 -1 -17 9 -37 27 -47 41 -20 32 -21 76 -1
76 16 0 20 16 6 24 -4 3 -16 -3 -26 -14 -36 -39 14 -129 81 -150 l29 -8 -28
-1 c-40 -1 -117 80 -117 123 0 8 14 28 30 45 18 17 26 32 20 36 -11 7 27 44
45 45 6 0 3 -5 -5 -10z m83 -16 c10 -10 -4 -34 -20 -34 -12 0 -13 -3 -4 -14 9
-11 9 -15 -1 -18 -10 -4 -10 -8 1 -21 10 -13 17 -15 27 -6 11 9 14 8 14 -2 0
-8 6 -5 14 7 14 18 16 18 32 2 20 -20 9 -42 -18 -35 -15 4 -17 2 -8 -7 8 -10
4 -13 -16 -10 -33 3 -63 30 -80 71 -17 40 -17 43 0 43 8 0 16 7 20 15 5 15 27
20 39 9z m413 -84 c3 0 3 4 0 8 -3 5 -8 24 -11 43 l-6 34 30 -29 c17 -16 28
-33 25 -38 -3 -4 0 -8 7 -8 8 0 7 -5 -2 -17 -12 -15 -12 -16 6 -9 45 19 62 18
67 -2 5 -18 3 -19 -18 -10 -25 12 -54 -3 -54 -26 0 -6 5 -3 11 7 12 21 32 22
49 2 7 -8 16 -13 20 -10 4 3 8 -14 8 -36 1 -33 -5 -48 -32 -75 -18 -19 -35
-31 -39 -28 -3 3 -14 1 -24 -6 -17 -11 -17 -11 2 -5 15 5 17 3 9 -5 -26 -26
-145 4 -128 32 4 7 3 8 -4 4 -12 -7 -35 32 -46 79 -5 23 -4 26 4 15 9 -13 11
-12 9 5 -1 11 0 40 1 65 2 43 2 44 11 15 5 -16 7 -36 4 -43 -3 -7 0 -10 5 -7
6 3 10 15 10 26 0 21 20 25 38 7 6 -6 14 -9 18 -6 3 4 -8 14 -25 23 -17 8 -31
17 -31 19 0 2 5 18 11 36 l12 32 28 -46 c16 -25 32 -46 35 -46z m72 35 c-3 -3
-9 2 -12 12 -6 14 -5 15 5 6 7 -7 10 -15 7 -18z m566 -44 c9 -16 12 -31 9 -35
-4 -3 -1 -6 6 -6 7 0 11 -6 8 -14 -3 -8 -2 -17 4 -20 5 -2 4 -3 -3 -2 -7 2
-12 9 -10 15 1 6 -2 11 -7 11 -5 0 -12 11 -15 24 -3 13 -9 31 -12 40 -10 27 5
18 20 -13z m-263 -23 c34 -12 34 -12 9 -19 -50 -14 -69 -11 -63 11 6 23 9 24
54 8z m-736 -48 c-3 -5 -12 -10 -18 -10 -7 0 -6 4 3 10 19 12 23 12 15 0z
m688 3 c-7 -2 -19 -2 -25 0 -7 3 -2 5 12 5 14 0 19 -2 13 -5z m-46 -9 c-3 -3
-12 -4 -19 -1 -8 3 -5 6 6 6 11 1 17 -2 13 -5z m-622 -14 c-3 -5 -13 -10 -21
-10 -8 0 -14 -4 -14 -10 0 -5 -6 -10 -12 -10 -7 1 -2 10 11 20 25 21 46 27 36
10z m669 -9 c4 -5 -3 -7 -14 -4 -23 6 -26 13 -6 13 8 0 17 -4 20 -9z m81 -1
c3 -6 -1 -7 -9 -4 -18 7 -21 14 -7 14 6 0 13 -4 16 -10z m-140 -29 c14 -23
-15 -18 -30 5 -16 25 -16 25 4 15 11 -6 22 -15 26 -20z m167 11 c-18 -14 -21
-22 -14 -41 7 -20 10 -21 15 -8 4 10 11 17 18 17 6 0 9 -7 5 -15 -3 -9 0 -15
9 -15 21 0 28 19 14 37 -11 13 -11 15 6 12 31 -6 60 -103 45 -151 -6 -21 -19
-42 -30 -48 -39 -21 -140 -5 -125 21 4 5 1 9 -5 9 -14 0 -40 25 -40 39 0 6 5
11 11 11 5 0 8 -4 4 -9 -7 -13 15 -25 26 -14 4 4 6 19 2 32 -5 20 -10 22 -39
18 -27 -5 -36 -2 -44 13 -15 28 -14 30 39 27 45 -2 48 0 35 14 -8 8 -14 21
-14 27 0 7 -8 12 -17 13 -12 0 -13 2 -5 6 22 9 62 -7 63 -25 0 -14 2 -14 6 -2
8 22 35 50 47 50 6 0 1 -8 -12 -18z m-232 -25 c0 21 30 2 46 -28 19 -37 10
-38 -10 -1 l-15 27 6 -34 c4 -23 3 -32 -5 -27 -5 3 -13 0 -15 -6 -3 -7 -8 2
-12 20 -7 29 -9 31 -21 15 -11 -15 -12 -13 -2 14 8 22 15 28 20 20 6 -9 8 -9
8 0z m-122 -138 c-3 -8 -7 -3 -11 10 -4 17 -3 21 5 13 5 -5 8 -16 6 -23z m562
-10 c0 -6 -4 -7 -10 -4 -5 3 -10 11 -10 16 0 6 5 7 10 4 6 -3 10 -11 10 -16z
m-17 -46 c14 -17 14 -18 -10 -20 -17 -1 -21 2 -13 7 7 4 9 13 6 19 -11 17 -1
13 17 -6z m-1083 -7 c0 -3 -4 -8 -10 -11 -5 -3 -10 -1 -10 4 0 6 5 11 10 11 6
0 10 -2 10 -4z m1150 -6 c0 -5 -8 -10 -17 -10 -15 0 -16 2 -3 10 19 12 20 12
20 0z m-1142 -70 c-7 -11 -14 -17 -17 -15 -2 3 1 11 7 18 7 8 8 18 4 22 -4 5
-1 5 5 1 10 -5 10 -11 1 -26z m327 21 c3 -5 1 -12 -5 -16 -5 -3 -10 1 -10 9 0
18 6 21 15 7z m491 -29 c-10 -11 -16 -12 -16 -4 0 7 5 12 10 12 6 0 10 8 11
18 0 11 2 13 6 4 3 -8 -2 -21 -11 -30z m-785 15 c-6 -8 -7 -18 -3 -22 4 -5 1
-5 -6 -1 -10 6 -10 11 -1 22 6 8 14 14 16 14 3 0 0 -6 -6 -13z m344 -27 c-3
-5 0 -12 6 -15 5 -4 8 -13 5 -21 -3 -9 0 -11 12 -7 15 6 15 4 4 -10 -19 -23
-55 -1 -45 28 3 11 6 25 6 32 0 7 4 10 9 7 5 -3 6 -9 3 -14z m535 -10 c25 0
30 -5 44 -47 8 -27 18 -65 22 -86 l6 -38 -58 26 c-33 14 -69 37 -81 51 -31 34
-31 87 -1 108 20 14 23 14 31 1 4 -8 21 -15 37 -15z m-366 -32 c7 -31 -4 -36
-27 -13 -8 8 -18 11 -22 7 -10 -8 4 17 18 36 12 16 22 6 31 -30z m-576 -52
c11 -6 9 -13 -9 -32 -12 -13 -27 -24 -33 -24 -6 0 0 7 12 16 22 15 22 17 7 34
-18 19 -4 23 23 6z m448 -30 c31 -32 4 -106 -40 -106 -16 0 -31 73 -16 78 6 2
8 8 4 13 -3 5 2 9 10 9 9 0 16 5 16 10 0 14 9 12 26 -4z m60 -16 c9 0 12 5 8
11 -4 7 -1 10 7 7 8 -3 14 -9 15 -14 0 -5 6 -21 14 -36 16 -33 7 -58 -20 -58
-34 0 -50 24 -49 72 0 24 3 37 6 31 2 -7 11 -13 19 -13z m-196 -10 c0 -5 -5
-10 -11 -10 -5 0 -7 5 -4 10 3 6 8 10 11 10 2 0 4 -4 4 -10z m726 -17 c-3 -3
2 -12 10 -20 8 -9 12 -18 9 -21 -7 -7 -34 29 -35 46 0 7 5 10 11 7 6 -4 8 -9
5 -12z m-19 -39 c-3 -3 -12 -4 -19 -1 -8 3 -5 6 6 6 11 1 17 -2 13 -5z m-962
-14 c-3 -5 15 -15 40 -21 28 -7 45 -17 45 -26 0 -13 -8 -14 -42 -8 -69 12 -93
11 -90 -3 1 -8 -2 -11 -9 -7 -7 5 -7 11 -1 17 6 6 8 16 6 22 -4 10 15 21 54
35 2 1 0 -3 -3 -9z m714 -37 l-1 -48 -14 32 c-14 32 -10 63 7 63 5 0 9 -21 8
-47z m-200 0 c2 -1 -2 -9 -8 -17 -7 -8 -10 -20 -6 -27 6 -8 10 -7 16 2 7 11 9
10 9 -3 0 -10 -5 -18 -11 -18 -5 0 -7 -5 -3 -12 5 -8 0 -9 -17 -5 -13 4 -30 7
-37 7 -7 0 -11 4 -8 9 4 5 1 11 -4 13 -6 2 -12 10 -13 18 -2 8 -6 21 -10 28
-15 22 2 29 45 19 24 -6 45 -12 47 -14z m-279 7 c0 -5 -5 -10 -11 -10 -5 0 -7
5 -4 10 3 6 8 10 11 10 2 0 4 -4 4 -10z m829 -31 c3 -12 1 -12 -14 1 -17 14
-17 13 -7 -6 6 -12 7 -26 1 -35 -7 -11 -9 -11 -9 0 0 11 -3 11 -15 1 -19 -16
-19 -11 1 29 16 32 34 37 43 10z m71 -25 c0 -19 -16 -10 -31 17 -10 19 -9 20
10 9 12 -6 21 -18 21 -26z"/>
<path d="M1141 1933 c0 -25 1 -26 9 -8 12 27 12 35 0 35 -5 0 -10 -12 -9 -27z"/>
<path d="M1016 1781 c-4 -5 -1 -13 5 -17 8 -4 7 -9 -2 -16 -12 -8 -12 -9 0 -6
16 5 24 35 11 43 -5 3 -11 1 -14 -4z"/>
<path d="M1005 1670 c3 -5 8 -10 11 -10 2 0 4 5 4 10 0 6 -5 10 -11 10 -5 0
-7 -4 -4 -10z"/>
<path d="M1053 1663 c0 -9 4 -10 14 -2 7 6 13 12 13 14 0 1 -6 2 -13 2 -8 0
-14 -6 -14 -14z"/>
<path d="M1016 1628 c3 -5 10 -6 15 -3 13 9 11 12 -6 12 -8 0 -12 -4 -9 -9z"/>
<path d="M1438 1604 c-4 -4 -2 -16 4 -27 9 -17 6 -23 -13 -38 -30 -22 -23 -28
19 -17 27 7 31 12 22 23 -6 7 -15 26 -18 40 -4 14 -11 23 -14 19z"/>
<path d="M673 1344 c-4 -11 0 -22 12 -30 23 -17 35 -18 35 -3 0 5 -5 7 -11 3
-7 -4 -9 2 -7 16 4 28 -19 39 -29 14z"/>
<path d="M1440 1243 c0 -9 3 -13 7 -10 3 4 13 1 22 -5 10 -8 9 -4 -3 10 -23
26 -26 27 -26 5z"/>
<path d="M1433 1185 c0 -22 2 -30 4 -17 2 12 2 30 0 40 -3 9 -5 -1 -4 -23z"/>
<path d="M1486 1184 c7 -37 16 -47 12 -12 -2 15 -7 30 -11 34 -3 3 -4 -6 -1
-22z"/>
<path d="M1357 1163 c-4 -3 -6 -18 -6 -32 1 -20 3 -21 6 -7 4 15 7 16 15 5 7
-10 8 -8 3 8 -5 18 -1 22 22 26 28 4 28 4 -3 6 -17 0 -34 -2 -37 -6z"/>
<path d="M1450 1130 c-8 -5 -12 -11 -9 -14 2 -3 11 -1 19 4 8 5 12 11 9 14 -2
3 -11 1 -19 -4z"/>
<path d="M1095 1120 c3 -5 13 -10 21 -10 8 0 12 5 9 10 -3 6 -13 10 -21 10 -8
0 -12 -4 -9 -10z"/>
<path d="M913 1104 c3 -4 -4 -15 -16 -25 l-22 -18 23 6 c12 3 22 10 22 15 0 5
6 6 13 2 8 -5 8 -2 -2 9 -7 9 -16 17 -19 17 -3 0 -3 -3 1 -6z"/>
<path d="M964 601 c7 -11 46 -35 46 -28 0 3 -12 12 -26 22 -15 9 -23 12 -20 6z"/>
<path d="M1023 500 c0 -25 2 -35 4 -22 2 12 2 32 0 45 -2 12 -4 2 -4 -23z"/>
<path d="M950 834 c0 -8 5 -12 10 -9 6 4 8 11 5 16 -9 14 -15 11 -15 -7z"/>
<path d="M1012 825 c0 -16 2 -22 5 -12 2 9 2 23 0 30 -3 6 -5 -1 -5 -18z"/>
<path d="M1100 836 c0 -9 5 -16 10 -16 6 0 10 4 10 9 0 6 -4 13 -10 16 -5 3
-10 -1 -10 -9z"/>
<path d="M1090 799 c0 -4 -10 -10 -22 -12 -16 -3 -14 -4 5 -2 15 1 27 -2 27
-7 0 -4 8 -8 18 -8 16 -1 16 -2 -1 -14 -11 -8 -14 -17 -8 -20 5 -4 15 2 20 13
15 27 14 31 -6 32 -15 0 -15 2 2 9 22 9 21 10 -12 14 -13 2 -23 -1 -23 -5z"/>
<path d="M920 770 c0 -5 7 -7 15 -4 8 4 15 8 15 10 0 2 -7 4 -15 4 -8 0 -15
-4 -15 -10z"/>
<path d="M1033 753 c9 -2 25 -2 35 0 9 3 1 5 -18 5 -19 0 -27 -2 -17 -5z"/>
<path d="M938 743 c7 -3 16 -2 19 1 4 3 -2 6 -13 5 -11 0 -14 -3 -6 -6z"/>
<path d="M1335 680 c-7 -12 2 -12 30 0 19 8 19 9 -2 9 -12 1 -25 -3 -28 -9z"/>
<path d="M1505 650 c6 -9 -42 -50 -49 -43 -3 4 -6 2 -6 -4 0 -6 10 -13 23 -17
32 -8 39 -7 32 4 -3 6 1 10 9 10 11 0 16 9 16 28 0 18 -5 29 -15 29 -8 0 -12
-3 -10 -7z"/>
<path d="M1480 2250 c0 -5 5 -10 10 -10 6 0 10 5 10 10 0 6 -4 10 -10 10 -5 0
-10 -4 -10 -10z"/>
<path d="M1506 2233 c-6 -14 -5 -15 5 -6 7 7 10 15 7 18 -3 3 -9 -2 -12 -12z"/>
<path d="M1670 2215 c13 -14 29 -25 37 -25 7 0 13 -4 13 -9 0 -5 8 -12 18 -15
9 -3 -3 12 -27 34 -48 44 -79 55 -41 15z"/>
<path d="M547 2025 c-4 -9 -1 -12 7 -9 8 3 17 1 21 -5 3 -6 11 -11 16 -11 14
0 2 18 -21 30 -13 7 -19 6 -23 -5z"/>
<path d="M500 1890 c0 -5 12 -10 28 -10 21 0 24 2 12 10 -20 13 -40 13 -40 0z"/>
<path d="M538 1843 c6 -2 18 -2 25 0 6 3 1 5 -13 5 -14 0 -19 -2 -12 -5z"/>
<path d="M510 1698 c0 -17 2 -18 15 -4 8 8 15 16 15 19 0 2 -7 4 -15 4 -8 0
-15 -9 -15 -19z"/>
<path d="M1690 1116 c0 -2 7 -7 16 -10 8 -3 12 -2 9 4 -6 10 -25 14 -25 6z"/>
<path d="M1640 1095 c-7 -9 -11 -17 -9 -20 3 -2 10 5 17 15 14 24 10 26 -8 5z"/>
<path d="M430 685 c0 -32 2 -35 19 -25 30 16 31 23 5 43 l-24 18 0 -36z"/>
<path d="M596 651 c-3 -5 1 -11 9 -14 9 -4 12 -1 8 9 -6 16 -10 17 -17 5z"/>
<path d="M646 567 c3 -10 9 -15 12 -12 3 3 0 11 -7 18 -10 9 -11 8 -5 -6z"/>
<path d="M1700 480 c0 -6 7 -13 15 -17 24 -9 27 1 5 15 -13 8 -20 8 -20 2z"/>
<path d="M480 451 c0 -6 4 -13 10 -16 6 -3 7 1 4 9 -7 18 -14 21 -14 7z"/>
<path d="M1706 391 c-3 -5 1 -11 9 -14 9 -4 12 -1 8 9 -6 16 -10 17 -17 5z"/>
<path d="M665 110 c-3 -5 -1 -10 4 -10 6 0 11 5 11 10 0 6 -2 10 -4 10 -3 0
-8 -4 -11 -10z"/>
</g>
</svg>
